<svg width="100" height="104" viewBox="0 0 100 104" fill="none" xmlns="http://www.w3.org/2000/svg">
<g filter="url(#filter0_f_18_49)">
<path d="M50 4L93.3013 79H6.69873L50 4Z" fill="#FFC700"/>
</g>
<path d="M50.5677 58.155C50.1277 58.155 49.761 58.0083 49.4677 57.715C49.211 57.4217 49.0643 56.9817 49.0277 56.395L47.9277 31.755C47.891 30.875 48.0927 30.1783 48.5327 29.665C49.0093 29.115 49.6877 28.84 50.5677 28.84C51.411 28.84 52.0527 29.115 52.4927 29.665C52.9327 30.1783 53.1343 30.875 53.0977 31.755L51.9977 56.395C51.9977 56.9817 51.8693 57.4217 51.6127 57.715C51.356 58.0083 51.0077 58.155 50.5677 58.155ZM50.5677 68.22C49.651 68.22 48.9177 67.945 48.3677 67.395C47.8177 66.8083 47.5427 66.075 47.5427 65.195C47.5427 64.315 47.8177 63.6 48.3677 63.05C48.9177 62.4633 49.651 62.17 50.5677 62.17C51.4843 62.17 52.1993 62.4633 52.7127 63.05C53.2627 63.6 53.5377 64.315 53.5377 65.195C53.5377 66.075 53.2627 66.8083 52.7127 67.395C52.1993 67.945 51.4843 68.22 50.5677 68.22Z" fill="black"/>
<defs>
<filter id="filter0_f_18_49" x="2.69873" y="0" width="94.6025" height="83" filterUnits="userSpaceOnUse" color-interpolation-filters="sRGB">
<feFlood flood-opacity="0" result="BackgroundImageFix"/>
<feBlend mode="normal" in="SourceGraphic" in2="BackgroundImageFix" result="shape"/>
<feGaussianBlur stdDeviation="2" result="effect1_foregroundBlur_18_49"/>
</filter>
</defs>
</svg>
